<svg width="150" height="150" viewBox="0 0 150 150" fill="none" xmlns="http://www.w3.org/2000/svg">
<circle cx="75" cy="75" r="74.5" fill="white" stroke="#0066FF"/>
<path d="M81.945 62.0923L81.9449 62.0924L81.956 62.0985C82.1615 62.2107 82.3422 62.3634 82.4871 62.5472C82.6321 62.731 82.7383 62.9422 82.7995 63.1681C82.8606 63.394 82.8754 63.6299 82.843 63.8616C82.8106 64.0934 82.7316 64.3162 82.6108 64.5167L82.6107 64.5166L82.6062 64.5245L69.5184 87.169C69.5181 87.1697 69.5177 87.1703 69.5173 87.1709C69.3581 87.44 69.1318 87.6633 68.8605 87.819C68.5885 87.9751 68.2806 88.0579 67.9669 88.0592L67.9573 88.0592L67.9477 88.0597C67.6471 88.0725 67.3495 87.9957 67.0927 87.8391L67.0861 87.8351L67.0794 87.8313C66.8758 87.7156 66.6971 87.5608 66.5538 87.3758C66.4104 87.1908 66.3051 86.9793 66.2439 86.7534C66.1828 86.5276 66.167 86.2919 66.1975 86.0599C66.228 85.8279 66.3041 85.6043 66.4216 85.4018L66.422 85.4011L79.512 62.7528L79.5137 62.7497C79.6294 62.5463 79.7842 62.3678 79.9693 62.2244C80.1545 62.0811 80.3661 61.9758 80.5922 61.9147C80.8183 61.8536 81.0542 61.8378 81.2864 61.8683C81.5186 61.8987 81.7424 61.9749 81.945 62.0923ZM71.6494 69.1901L71.6486 69.2103L71.6495 69.2305C71.7334 71.192 71.0356 73.1067 69.7091 74.5548C68.3877 75.9974 66.5498 76.8596 64.5957 76.9543C62.6381 76.8595 60.7963 75.9982 59.469 74.5562C58.1366 73.1087 57.4308 71.1935 57.5054 69.2281L57.506 69.2103L57.5054 69.1925C57.4401 67.2329 58.1501 65.3265 59.4815 63.8864C60.8078 62.452 62.6443 61.5954 64.5957 61.5006C66.5435 61.5953 68.3761 62.4528 69.6965 63.8879C71.022 65.3285 71.724 67.2344 71.6494 69.1901ZM64.5383 73.3706L64.5958 73.3772L64.6533 73.3706C65.6592 73.254 66.5795 72.7483 67.2169 71.9617C67.844 71.188 68.1483 70.2031 68.0679 69.2118C68.1593 68.2168 67.8586 67.2246 67.2285 66.4472C66.5881 65.6569 65.6598 65.1533 64.6479 65.0471L64.5957 65.0416L64.5435 65.0471C63.53 65.1534 62.5992 65.6548 61.9529 66.4425C61.3159 67.219 61.0059 68.212 61.0874 69.2118C61.0167 70.2077 61.3301 71.1936 61.9642 71.9665C62.6075 72.7506 63.5306 73.2541 64.5383 73.3706ZM77.4153 80.7013L77.4161 80.6811L77.4154 80.6609C77.3408 78.7052 78.0428 76.7993 79.3683 75.3586C80.6887 73.9236 82.5212 73.0661 84.4691 72.9713C86.4205 73.0662 88.257 73.9228 89.5833 75.3572C90.9147 76.7973 91.6246 78.7037 91.5593 80.6632L91.5587 80.6811L91.5594 80.6989C91.634 82.6643 90.9282 84.5795 89.5958 86.027C88.2685 87.469 86.4266 88.3303 84.4691 88.4251C82.515 88.3304 80.6771 87.4682 79.3557 86.0256C78.0292 84.5775 77.3314 82.6628 77.4153 80.7013ZM84.4115 84.8414L84.469 84.848L84.5265 84.8414C85.5342 84.7249 86.4572 84.2214 87.1006 83.4373C87.7346 82.6644 88.0481 81.6785 87.9774 80.6825C88.0588 79.6828 87.7489 78.6898 87.1119 77.9133C86.4656 77.1255 85.5348 76.6242 84.5212 76.5178L84.4663 76.5121L84.4115 76.5184C83.4056 76.635 82.4853 77.1407 81.8478 77.9273C81.2202 78.7017 80.9159 79.6877 80.9971 80.6799C80.9159 81.6721 81.2202 82.6581 81.8478 83.4325C82.4853 84.2191 83.4056 84.7248 84.4115 84.8414Z" fill="#0066FF" stroke="#0066FF"/>
<path d="M75.3176 47.5139L75.3333 47.5144L75.3491 47.5139C82.7517 47.2809 89.9443 49.9937 95.3474 55.0565C100.746 60.1155 103.918 67.1078 104.166 74.5C103.918 81.8922 100.746 88.8845 95.3474 93.9435C89.9443 99.0063 82.7517 101.719 75.3491 101.486L75.3333 101.486L75.3176 101.486C67.915 101.719 60.7224 99.0063 55.3193 93.9435C49.9202 88.8845 46.7489 81.8922 46.5003 74.5C46.7489 67.1078 49.9202 60.1155 55.3193 55.0565C60.7224 49.9937 67.915 47.2809 75.3176 47.5139ZM50.0837 74.4796L50.0829 74.5L50.0837 74.5204C50.3468 80.9652 53.1529 87.0436 57.8881 91.4258C62.619 95.804 68.8906 98.1331 75.3333 97.9052C81.7761 98.1331 88.0477 95.804 92.7785 91.4258C97.5138 87.0436 100.32 80.9652 100.583 74.5204L100.584 74.5L100.583 74.4796C100.32 68.0348 97.5138 61.9564 92.7785 57.5742C88.0477 53.196 81.7761 50.8669 75.3333 51.0948C68.8906 50.8669 62.619 53.196 57.8881 57.5742C53.1529 61.9564 50.3468 68.0348 50.0837 74.4796Z" fill="#0066FF" stroke="#0066FF"/>
</svg>
